<svg width="290" height="135" viewBox="0 0 290 135" fill="none" xmlns="http://www.w3.org/2000/svg">
<path d="M282.5 0.5H0.5V122.5H282.5V0.5Z" stroke="white" stroke-opacity="0.5"/>
<path d="M0 24.5H283" stroke="white" stroke-opacity="0.5"/>
<path d="M141.5 0V124" stroke="white" stroke-opacity="0.5"/>
<path d="M113.5 0V124" stroke="white" stroke-opacity="0.5"/>
<path d="M84.5 0V124" stroke="white" stroke-opacity="0.5"/>
<path d="M56.5 0V124" stroke="white" stroke-opacity="0.5"/>
<path d="M27.5 0.5V123" stroke="white" stroke-opacity="0.5"/>
<path d="M170.5 0V124" stroke="white" stroke-opacity="0.5"/>
<path d="M199.5 0V124" stroke="white" stroke-opacity="0.5"/>
<path d="M227.5 0V124" stroke="white" stroke-opacity="0.5"/>
<path d="M256.5 0V124" stroke="white" stroke-opacity="0.5"/>
<path d="M0 49.5H283" stroke="white" stroke-opacity="0.5"/>
<path d="M0 74.5H283" stroke="white" stroke-opacity="0.5"/>
<path d="M0 99.5H283" stroke="white" stroke-opacity="0.5"/>
<path d="M67.6028 106.549L16 134.195H285.377V20.5L269 5L155.953 83.9121L97.3134 46.2984L67.6028 106.549Z" fill="#2FBF71"/>
<path d="M134.714 79.9163L94.3604 134.891H289.338V11.5L263.5 24L193.197 113.252L134.714 79.9163Z" fill="#FFC530"/>
<path d="M37.7837 47.9449C41.7037 47.9449 45.0077 46.3956 47.6957 43.2969L53.4637 48.6729C51.597 50.9502 49.2824 52.6862 46.5197 53.8809C43.7944 55.0756 40.733 55.6729 37.3357 55.6729C34.0877 55.6729 31.0637 55.0942 28.2637 53.9369C25.501 52.7796 23.149 51.1369 21.2077 49.0089C19.2664 46.8809 17.8664 44.4169 17.0077 41.6169H10.6797V36.9129H16.1677C16.1304 36.5769 16.1117 36.0729 16.1117 35.4009C16.1117 34.7289 16.1304 34.2249 16.1677 33.8889H10.6797V29.1849H17.0077C17.8664 26.3849 19.2664 23.9209 21.2077 21.7929C23.149 19.6649 25.501 18.0222 28.2637 16.8649C31.0637 15.7076 34.0877 15.1289 37.3357 15.1289C40.733 15.1289 43.7944 15.7262 46.5197 16.9209C49.2824 18.1156 51.597 19.8329 53.4637 22.0729L47.6957 27.4489C44.9704 24.3876 41.6664 22.8569 37.7837 22.8569C35.3197 22.8569 33.117 23.4169 31.1757 24.5369C29.2344 25.6569 27.741 27.2062 26.6957 29.1849H40.8637V33.8889H25.2957C25.2584 34.2249 25.2397 34.7289 25.2397 35.4009C25.2397 36.0729 25.2584 36.5769 25.2957 36.9129H40.8637V41.6169H26.6957C27.741 43.5956 29.2344 45.1449 31.1757 46.2649C33.117 47.3849 35.3197 47.9449 37.7837 47.9449Z" fill="#2FBF71"/>
</svg>
