<svg width="162" height="127" viewBox="0 0 162 127" fill="none" xmlns="http://www.w3.org/2000/svg">
<path d="M74.296 0L71.8968 7.38353H64.1201L70.4076 11.9481L68.0084 19.3558L74.2953 14.7906L80.5816 19.3552L78.1837 11.9487L84.4457 7.38353H76.6932L74.296 0ZM42.2346 8.59438L39.8367 16.0015H32.06L38.3463 20.566L35.9484 27.9502L42.2105 23.385L48.498 27.9496L46.0988 20.5667L52.3857 16.0015H44.6338L42.2346 8.59438ZM106.357 8.59438L103.957 16.0015H96.1808L102.468 20.566L100.069 27.9502L106.356 23.385L112.643 27.9496L110.244 20.5667L116.531 16.0015H108.754L106.357 8.59438ZM18.7423 32.0959L16.3444 39.4794H8.59062L14.854 44.044L12.4548 51.4281L18.7417 46.8629L25.0286 51.4275L22.6294 44.0446L28.9163 39.4794H21.1396L18.7423 32.0959ZM129.826 32.0959L127.427 39.4794H119.674L125.938 44.0211L123.539 51.4275L129.825 46.8623L136.112 51.4269L133.713 44.044L140 39.4788H132.223L129.826 32.0959ZM10.1511 64.1682L7.75186 71.5517H0L6.26335 76.1163L3.86416 83.5005L10.1746 78.9346L16.4379 83.5005L14.0388 76.1169L20.3256 71.5517H12.549L10.1511 64.1682ZM18.7423 96.2399L16.3444 103.623H8.59062L14.854 108.189L12.4548 115.596L18.7417 111.03L25.0286 115.596L22.6294 108.189L28.9163 103.623H21.1396L18.7423 96.2399Z" fill="#FFCC00"/>
<path d="M161.421 53.6992L50.3203 126.268H161.421V53.6992Z" fill="#2FBF71"/>
<path d="M27.3193 86.2103L53.5366 50.494L91.5327 72.1518L137.128 8.31836" stroke="black" stroke-width="2"/>
<circle cx="53.9173" cy="51.6341" r="6.07937" fill="#2FBF71"/>
<circle cx="28.0794" cy="85.8333" r="6.07937" fill="#2FBF71"/>
<circle cx="92.6721" cy="69.8723" r="6.07937" fill="#2FBF71"/>
<circle cx="137.507" cy="9.07937" r="6.07937" fill="#2FBF71"/>
</svg>
