<svg width="290" height="135" viewBox="0 0 290 135" fill="none" xmlns="http://www.w3.org/2000/svg">
<rect x="0.5" y="0.5" width="282" height="122" stroke="black" stroke-opacity="0.5"/>
<line y1="24.5" x2="283" y2="24.5" stroke="black" stroke-opacity="0.5"/>
<line x1="141.5" y1="1.98515e-08" x2="141.5" y2="124" stroke="black" stroke-opacity="0.5"/>
<line x1="113.5" y1="1.99374e-08" x2="113.5" y2="124" stroke="black" stroke-opacity="0.5"/>
<line x1="84.5" y1="1.98515e-08" x2="84.5" y2="124" stroke="black" stroke-opacity="0.5"/>
<line x1="56.5" y1="1.96796e-08" x2="56.5" y2="124" stroke="black" stroke-opacity="0.5"/>
<path d="M27.5 0.5L27.5 123" stroke="black" stroke-opacity="0.5"/>
<line x1="170.5" y1="1.99374e-08" x2="170.5" y2="124" stroke="black" stroke-opacity="0.5"/>
<line x1="199.5" y1="1.99374e-08" x2="199.5" y2="124" stroke="black" stroke-opacity="0.5"/>
<line x1="227.5" y1="1.99374e-08" x2="227.5" y2="124" stroke="black" stroke-opacity="0.5"/>
<line x1="256.5" y1="1.9515e-08" x2="256.5" y2="124" stroke="black" stroke-opacity="0.5"/>
<line y1="49.5" x2="283" y2="49.5" stroke="black" stroke-opacity="0.5"/>
<line y1="74.5" x2="283" y2="74.5" stroke="black" stroke-opacity="0.5"/>
<line y1="99.5" x2="283" y2="99.5" stroke="black" stroke-opacity="0.5"/>
<path d="M67.6028 106.549L16 134.195H285.377V20.5L269 5L155.953 83.9121L97.3134 46.2984L67.6028 106.549Z" fill="#2FBF71"/>
<path d="M134.714 79.9163L94.3604 134.891H289.338V11.5L263.5 24L193.197 113.252L134.714 79.9163Z" fill="#FFC530"/>
<path d="M37.784 47.944C41.704 47.944 45.008 46.3947 47.696 43.296L53.464 48.672C51.5973 50.9493 49.2827 52.6853 46.52 53.88C43.7947 55.0747 40.7333 55.672 37.336 55.672C34.088 55.672 31.064 55.0933 28.264 53.936C25.5013 52.7787 23.1493 51.136 21.208 49.008C19.2667 46.88 17.8667 44.416 17.008 41.616H10.68V36.912H16.168C16.1307 36.576 16.112 36.072 16.112 35.4C16.112 34.728 16.1307 34.224 16.168 33.888H10.68V29.184H17.008C17.8667 26.384 19.2667 23.92 21.208 21.792C23.1493 19.664 25.5013 18.0213 28.264 16.864C31.064 15.7067 34.088 15.128 37.336 15.128C40.7333 15.128 43.7947 15.7253 46.52 16.92C49.2827 18.1147 51.5973 19.832 53.464 22.072L47.696 27.448C44.9707 24.3867 41.6667 22.856 37.784 22.856C35.32 22.856 33.1173 23.416 31.176 24.536C29.2347 25.656 27.7413 27.2053 26.696 29.184H40.864V33.888H25.296C25.2587 34.224 25.24 34.728 25.24 35.4C25.24 36.072 25.2587 36.576 25.296 36.912H40.864V41.616H26.696C27.7413 43.5947 29.2347 45.144 31.176 46.264C33.1173 47.384 35.32 47.944 37.784 47.944Z" fill="#2FBF71"/>
</svg>
