<svg width="156" height="130" viewBox="0 0 156 130" fill="none" xmlns="http://www.w3.org/2000/svg">
<rect x="43" y="23.666" width="89.7309" height="89.7309" fill="#2FBF71"/>
<rect x="67" y="1.54006" width="86.6508" height="86.6508" stroke="#0A2342" stroke-width="3.08012"/>
<path d="M20.232 116.248V121H1.188V117.22L10.908 108.04C11.94 107.056 12.636 106.216 12.996 105.52C13.356 104.8 13.536 104.092 13.536 103.396C13.536 102.388 13.188 101.62 12.492 101.092C11.82 100.54 10.824 100.264 9.504 100.264C8.4 100.264 7.404 100.48 6.516 100.912C5.628 101.32 4.884 101.944 4.284 102.784L0.036 100.048C1.02 98.584 2.376 97.444 4.104 96.628C5.832 95.788 7.812 95.368 10.044 95.368C11.916 95.368 13.548 95.68 14.94 96.304C16.356 96.904 17.448 97.768 18.216 98.896C19.008 100 19.404 101.308 19.404 102.82C19.404 104.188 19.116 105.472 18.54 106.672C17.964 107.872 16.848 109.24 15.192 110.776L9.396 116.248H20.232ZM33.3681 121.432C31.2801 121.432 29.4201 120.916 27.7881 119.884C26.1561 118.852 24.8721 117.364 23.9361 115.42C23.0241 113.452 22.5681 111.112 22.5681 108.4C22.5681 105.688 23.0241 103.36 23.9361 101.416C24.8721 99.448 26.1561 97.948 27.7881 96.916C29.4201 95.884 31.2801 95.368 33.3681 95.368C35.4561 95.368 37.3161 95.884 38.9481 96.916C40.5801 97.948 41.8521 99.448 42.7641 101.416C43.7001 103.36 44.1681 105.688 44.1681 108.4C44.1681 111.112 43.7001 113.452 42.7641 115.42C41.8521 117.364 40.5801 118.852 38.9481 119.884C37.3161 120.916 35.4561 121.432 33.3681 121.432ZM33.3681 116.5C34.9041 116.5 36.1041 115.84 36.9681 114.52C37.8561 113.2 38.3001 111.16 38.3001 108.4C38.3001 105.64 37.8561 103.6 36.9681 102.28C36.1041 100.96 34.9041 100.3 33.3681 100.3C31.8561 100.3 30.6561 100.96 29.7681 102.28C28.9041 103.6 28.4721 105.64 28.4721 108.4C28.4721 111.16 28.9041 113.2 29.7681 114.52C30.6561 115.84 31.8561 116.5 33.3681 116.5ZM65.6187 116.248V121H46.5747V117.22L56.2947 108.04C57.3267 107.056 58.0227 106.216 58.3827 105.52C58.7427 104.8 58.9227 104.092 58.9227 103.396C58.9227 102.388 58.5747 101.62 57.8787 101.092C57.2067 100.54 56.2107 100.264 54.8907 100.264C53.7867 100.264 52.7907 100.48 51.9027 100.912C51.0147 101.32 50.2707 101.944 49.6707 102.784L45.4227 100.048C46.4067 98.584 47.7627 97.444 49.4907 96.628C51.2187 95.788 53.1987 95.368 55.4307 95.368C57.3027 95.368 58.9347 95.68 60.3267 96.304C61.7427 96.904 62.8347 97.768 63.6027 98.896C64.3947 100 64.7907 101.308 64.7907 102.82C64.7907 104.188 64.5027 105.472 63.9267 106.672C63.3507 107.872 62.2347 109.24 60.5787 110.776L54.7827 116.248H65.6187ZM78.7548 121.432C76.6668 121.432 74.8068 120.916 73.1748 119.884C71.5428 118.852 70.2588 117.364 69.3228 115.42C68.4108 113.452 67.9548 111.112 67.9548 108.4C67.9548 105.688 68.4108 103.36 69.3228 101.416C70.2588 99.448 71.5428 97.948 73.1748 96.916C74.8068 95.884 76.6668 95.368 78.7548 95.368C80.8428 95.368 82.7028 95.884 84.3348 96.916C85.9668 97.948 87.2388 99.448 88.1508 101.416C89.0868 103.36 89.5548 105.688 89.5548 108.4C89.5548 111.112 89.0868 113.452 88.1508 115.42C87.2388 117.364 85.9668 118.852 84.3348 119.884C82.7028 120.916 80.8428 121.432 78.7548 121.432ZM78.7548 116.5C80.2908 116.5 81.4908 115.84 82.3548 114.52C83.2428 113.2 83.6868 111.16 83.6868 108.4C83.6868 105.64 83.2428 103.6 82.3548 102.28C81.4908 100.96 80.2908 100.3 78.7548 100.3C77.2428 100.3 76.0428 100.96 75.1548 102.28C74.2908 103.6 73.8588 105.64 73.8588 108.4C73.8588 111.16 74.2908 113.2 75.1548 114.52C76.0428 115.84 77.2428 116.5 78.7548 116.5Z" fill="black"/>
</svg>
