<svg width="179" height="144" viewBox="0 0 179 144" fill="none" xmlns="http://www.w3.org/2000/svg">
<circle cx="97.5212" cy="66.5212" r="57.5212" fill="#FFBA0A"/>
<rect x="1.54006" y="73.5401" width="68.9199" height="68.9199" stroke="#0A2342" stroke-width="3.08012"/>
<line x1="2" y1="84.5" x2="69" y2="84.5" stroke="black"/>
<line x1="2" y1="96.5" x2="69" y2="96.5" stroke="black"/>
<line x1="2" y1="108.5" x2="69" y2="108.5" stroke="black"/>
<line x1="2" y1="119.5" x2="69" y2="119.5" stroke="black"/>
<line x1="2" y1="131.5" x2="69" y2="131.5" stroke="black"/>
<line x1="11.5" y1="142" x2="11.5" y2="75" stroke="black"/>
<line x1="23.5" y1="142" x2="23.5" y2="75" stroke="black"/>
<line x1="35.5" y1="142" x2="35.5" y2="75" stroke="black"/>
<line x1="46.5" y1="142" x2="46.5" y2="75" stroke="black"/>
<line x1="58.5" y1="142" x2="58.5" y2="75" stroke="black"/>
<line x1="34.7214" y1="51.5848" x2="110.721" y2="0.584813" stroke="black"/>
<path d="M104.763 51.5592L176.5 9.0001" stroke="black"/>
<line x1="71.7358" y1="143.575" x2="161.736" y2="87.5755" stroke="black"/>
</svg>
