<svg width="4141" height="625" viewBox="0 0 4141 625" fill="none" xmlns="http://www.w3.org/2000/svg">
<path d="M221.074 624C178.152 624 136.523 618.273 96.1865 606.819C56.3673 594.844 24.3052 579.484 0 560.741L42.6634 465.462C65.9343 482.643 93.6008 496.441 125.663 506.854C157.725 517.267 189.787 522.473 221.849 522.473C257.532 522.473 283.905 517.267 300.971 506.854C318.036 495.92 326.569 481.602 326.569 463.9C326.569 450.884 321.397 440.21 311.055 431.88C301.229 423.029 288.301 416 272.27 410.793C256.756 405.587 235.553 399.86 208.663 393.612C167.292 383.72 133.42 373.827 107.046 363.935C80.6725 354.043 57.9187 338.163 38.7849 316.295C20.1681 294.428 10.8598 265.272 10.8598 228.826C10.8598 197.066 19.3924 168.431 36.4578 142.919C53.5231 116.886 79.1211 96.3204 113.252 81.2215C147.9 66.1227 190.046 58.5732 239.691 58.5732C274.338 58.5732 308.21 62.7385 341.307 71.0688C374.403 79.3993 403.363 91.3742 428.185 106.994L389.4 203.054C339.238 174.418 289.077 160.1 238.915 160.1C203.75 160.1 177.635 165.827 160.569 177.282C144.021 188.736 135.747 203.835 135.747 222.578C135.747 241.322 145.314 255.379 164.448 264.751C184.099 273.602 213.834 282.453 253.653 291.304C295.024 301.196 328.896 311.089 355.269 320.981C381.643 330.874 404.138 346.493 422.755 367.84C441.889 389.186 451.456 418.083 451.456 454.528C451.456 485.767 442.665 514.403 425.082 540.436C408.017 565.947 382.16 586.253 347.512 601.352C312.865 616.45 270.718 624 221.074 624Z" fill="#0A2342"/>
<path d="M1068.11 35.1439H1189.12V614.628H1068.11V35.1439Z" fill="#0A2342"/>
<path d="M1485.27 188.215C1549.91 188.215 1599.55 203.835 1634.2 235.074C1668.85 265.792 1686.17 312.39 1686.17 374.869V614.628H1572.92V562.303C1550.17 601.352 1507.76 620.876 1445.71 620.876C1413.64 620.876 1385.72 615.409 1361.93 604.476C1338.66 593.542 1320.82 578.443 1308.41 559.179C1296 539.915 1289.79 518.048 1289.79 493.577C1289.79 454.528 1304.27 423.81 1333.23 401.422C1362.71 379.034 1407.96 367.84 1468.98 367.84H1565.16C1565.16 341.287 1557.15 320.981 1541.12 306.924C1525.09 292.345 1501.04 285.056 1468.98 285.056C1446.74 285.056 1424.76 288.701 1403.04 295.99C1381.84 302.758 1363.74 312.13 1348.74 324.105L1305.3 238.979C1328.06 222.839 1355.21 210.343 1386.75 201.492C1418.82 192.641 1451.65 188.215 1485.27 188.215ZM1475.96 538.874C1496.64 538.874 1515 534.188 1531.03 524.816C1547.06 514.924 1558.44 500.606 1565.16 481.862V438.909H1482.16C1432.52 438.909 1407.7 455.309 1407.7 488.11C1407.7 503.73 1413.64 516.225 1425.54 525.597C1437.95 534.448 1454.76 538.874 1475.96 538.874Z" fill="#0A2342"/>
<path d="M1926.78 249.912C1941.26 229.607 1960.66 214.248 1984.96 203.835C2009.78 193.422 2038.23 188.215 2070.29 188.215V300.676C2056.84 299.635 2047.79 299.114 2043.14 299.114C2008.49 299.114 1981.34 309.006 1961.69 328.791C1942.04 348.055 1932.21 377.211 1932.21 416.26V614.628H1811.2V194.463H1926.78V249.912Z" fill="#0A2342"/>
<path d="M2971.07 67.9449L2793.43 614.628H2658.46L2539 244.446L2415.67 614.628H2281.47L2103.06 67.9449H2233.38L2355.94 452.185L2483.93 67.9449H2600.28L2724.39 455.309L2850.83 67.9449H2971.07Z" fill="#0A2342"/>
<path d="M3055.77 194.463H3176.78V614.628H3055.77V194.463ZM3116.28 135.89C3094.04 135.89 3075.94 129.382 3061.98 116.365C3048.02 103.349 3041.04 87.209 3041.04 67.9449C3041.04 48.6809 3048.02 32.5407 3061.98 19.5244C3075.94 6.50814 3094.04 0 3116.28 0C3138.52 0 3156.62 6.24782 3170.58 18.7435C3184.54 31.2391 3191.52 46.8586 3191.52 65.602C3191.52 85.9074 3184.54 102.829 3170.58 116.365C3156.62 129.382 3138.52 135.89 3116.28 135.89Z" fill="#0A2342"/>
<path d="M3445.01 620.876C3410.36 620.876 3376.49 616.711 3343.39 608.38C3310.29 599.529 3283.92 588.596 3264.27 575.579L3304.6 488.11C3323.22 500.085 3345.72 509.977 3372.09 517.787C3398.46 525.076 3424.32 528.721 3449.66 528.721C3500.86 528.721 3526.45 515.965 3526.45 490.453C3526.45 478.478 3519.47 469.887 3505.51 464.681C3491.55 459.474 3470.09 455.049 3441.13 451.404C3407 446.198 3378.81 440.21 3356.58 433.442C3334.34 426.673 3314.95 414.698 3298.4 397.517C3282.37 380.335 3274.35 355.865 3274.35 324.105C3274.35 297.552 3281.85 274.123 3296.85 253.817C3312.36 232.991 3334.6 216.851 3363.56 205.397C3393.03 193.942 3427.68 188.215 3467.5 188.215C3496.98 188.215 3526.2 191.6 3555.15 198.368C3584.63 204.616 3608.94 213.467 3628.07 224.921L3587.73 311.61C3551.02 290.783 3510.94 280.37 3467.5 280.37C3441.64 280.37 3422.25 284.015 3409.32 291.304C3396.4 298.593 3389.93 307.965 3389.93 319.419C3389.93 332.436 3396.91 341.547 3410.87 346.753C3424.84 351.96 3447.07 356.906 3477.58 361.592C3511.72 367.319 3539.64 373.567 3561.36 380.335C3583.08 386.583 3601.96 398.298 3617.99 415.479C3634.02 432.661 3642.03 456.611 3642.03 487.329C3642.03 513.362 3634.28 536.531 3618.76 556.836C3603.25 577.141 3580.49 593.021 3550.5 604.476C3521.02 615.409 3485.86 620.876 3445.01 620.876Z" fill="#0A2342"/>
<path d="M4141 406.108C4141 407.67 4140.22 418.603 4138.67 438.909H3822.96C3828.65 464.941 3842.1 485.507 3863.3 500.606C3884.5 515.705 3910.88 523.254 3942.42 523.254C3964.14 523.254 3983.27 520.13 3999.82 513.882C4016.89 507.114 4032.66 496.701 4047.14 482.643L4111.52 552.931C4072.22 598.228 4014.82 620.876 3939.32 620.876C3892.26 620.876 3850.63 611.765 3814.43 593.542C3778.23 574.799 3750.31 549.026 3730.66 516.225C3711.01 483.424 3701.18 446.198 3701.18 404.546C3701.18 363.414 3710.75 326.448 3729.88 293.647C3749.53 260.325 3776.16 234.553 3809.78 216.33C3843.91 197.587 3881.92 188.215 3923.8 188.215C3964.66 188.215 4001.63 197.066 4034.73 214.768C4067.83 232.471 4093.68 257.982 4112.3 291.304C4131.43 324.105 4141 362.373 4141 406.108ZM3924.58 280.37C3897.17 280.37 3874.16 288.18 3855.54 303.8C3836.93 319.419 3825.55 340.766 3821.41 367.84H4026.97C4022.84 341.287 4011.46 320.2 3992.84 304.581C3974.22 288.441 3951.47 280.37 3924.58 280.37Z" fill="#0A2342"/>
<path fill-rule="evenodd" clip-rule="evenodd" d="M785.165 295.963C778.629 293.906 771.845 292.408 764.87 291.524V191.925C785.309 192.901 804.692 196 823.022 201.223L785.165 295.963ZM806.475 305.093C813.553 309 820.182 313.62 826.267 318.854L902.957 242.165C892.445 233.737 880.966 226.25 868.519 219.703C860.902 215.583 853.059 211.915 844.992 208.7L806.475 305.093ZM741.694 290.879C733.904 291.426 726.325 292.735 719.03 294.733L679.056 200.909C698.803 195.43 719.682 192.367 741.694 191.719V290.879ZM697.386 303.061L656.98 208.224C648.396 211.551 640.047 215.378 631.931 219.703C620.513 225.709 609.909 232.506 600.119 240.095L676.545 316.521C682.967 311.334 689.949 306.812 697.386 303.061ZM582.607 255.36C570.291 267.423 559.583 281.05 550.483 296.239C547.734 300.828 545.177 305.503 542.813 310.265L647.071 351.924C650.764 345.109 655.114 338.703 660.036 332.789L582.607 255.36ZM638.11 373.302L533.717 331.589C526.473 351.708 522.325 373.222 521.274 396.131H633.56C634.325 388.267 635.867 380.632 638.11 373.302ZM535.321 488.55C527.038 467.088 522.35 444.007 521.256 419.308L633.586 419.307C634.449 427.99 636.262 436.394 638.919 444.412L535.321 488.55ZM550.483 519.598C548.525 516.33 546.664 513.018 544.901 509.661L648.366 465.58C652.131 472.164 656.517 478.346 661.444 484.048L583.738 561.755C570.945 549.303 559.86 535.251 550.483 519.598ZM920.195 257.703L842.268 335.63C846.4 340.921 850.088 346.576 853.273 352.54L956.731 308.462C954.623 304.322 952.368 300.247 949.967 296.239C941.451 282.025 931.527 269.179 920.195 257.703ZM979.178 396.176H866.457C865.717 388.535 864.243 381.109 862.105 373.97L966.038 329.689C973.717 350.365 978.097 372.528 979.178 396.176ZM866.422 419.353L979.192 419.353C978.22 441.203 974.435 461.787 967.836 481.103L862.714 439.098C864.494 432.72 865.746 426.121 866.422 419.353ZM854.29 460.69C850.72 467.686 846.467 474.275 841.619 480.37L919.866 558.617C931.335 546.956 941.369 533.95 949.967 519.598C953.292 514.049 956.335 508.372 959.097 502.57L854.29 460.69ZM902.686 574.213L825.473 497C819.945 501.67 813.978 505.837 807.643 509.43L848.824 606.088C855.548 603.342 862.113 600.284 868.519 596.915C880.859 590.239 892.248 582.672 902.686 574.213ZM826.905 613.771L786.464 518.851C782.965 520.007 779.366 520.979 775.665 521.766C772.125 522.558 768.524 523.19 764.87 523.653V623.922C786.758 622.906 807.436 619.522 826.905 613.771ZM741.694 624.122V524.298C734.395 523.785 727.28 522.603 720.412 520.813L682.356 616.053C701.124 620.837 720.904 623.527 741.694 624.122ZM660.122 609.234L698.673 512.755C691.414 509.205 684.577 504.926 678.257 500.013L601.273 576.996C610.741 584.34 620.96 590.98 631.931 596.915C641.033 601.632 650.43 605.738 660.122 609.234Z" fill="#0A2342"/>
</svg>
