<svg width="4141" height="625" viewBox="0 0 4141 625" fill="none" xmlns="http://www.w3.org/2000/svg">
<path d="M221.074 624C178.152 624 136.523 618.273 96.1865 606.819C56.3673 594.844 24.3052 579.484 0 560.741L42.6634 465.462C65.9343 482.643 93.6008 496.441 125.663 506.854C157.725 517.267 189.787 522.473 221.849 522.473C257.532 522.473 283.905 517.267 300.971 506.854C318.036 495.92 326.569 481.602 326.569 463.9C326.569 450.884 321.397 440.21 311.055 431.88C301.229 423.029 288.301 416 272.27 410.793C256.756 405.587 235.553 399.86 208.663 393.612C167.292 383.72 133.42 373.827 107.046 363.935C80.6725 354.043 57.9187 338.163 38.7849 316.295C20.1681 294.428 10.8598 265.272 10.8598 228.826C10.8598 197.066 19.3924 168.431 36.4578 142.919C53.5231 116.886 79.1211 96.3204 113.252 81.2215C147.9 66.1227 190.046 58.5732 239.691 58.5732C274.338 58.5732 308.21 62.7385 341.307 71.0688C374.403 79.3993 403.363 91.3742 428.185 106.994L389.4 203.054C339.238 174.418 289.077 160.1 238.915 160.1C203.75 160.1 177.635 165.827 160.569 177.282C144.021 188.736 135.747 203.835 135.747 222.578C135.747 241.322 145.314 255.379 164.448 264.751C184.099 273.602 213.834 282.453 253.653 291.304C295.024 301.196 328.896 311.089 355.269 320.981C381.643 330.874 404.138 346.493 422.755 367.84C441.889 389.186 451.456 418.083 451.456 454.528C451.456 485.767 442.665 514.403 425.082 540.436C408.017 565.947 382.16 586.253 347.512 601.352C312.865 616.45 270.718 624 221.074 624Z" fill="#0A2342"/>
<path d="M1068.11 35.1439H1189.12V614.628H1068.11V35.1439Z" fill="#0A2342"/>
<path d="M1485.27 188.215C1549.91 188.215 1599.55 203.835 1634.2 235.074C1668.85 265.792 1686.17 312.39 1686.17 374.869V614.628H1572.92V562.303C1550.17 601.352 1507.76 620.876 1445.71 620.876C1413.64 620.876 1385.72 615.409 1361.93 604.476C1338.66 593.542 1320.82 578.443 1308.41 559.179C1296 539.915 1289.79 518.048 1289.79 493.577C1289.79 454.528 1304.27 423.81 1333.23 401.422C1362.71 379.034 1407.96 367.84 1468.98 367.84H1565.16C1565.16 341.287 1557.15 320.981 1541.12 306.924C1525.09 292.345 1501.04 285.056 1468.98 285.056C1446.74 285.056 1424.76 288.701 1403.04 295.99C1381.84 302.758 1363.74 312.13 1348.74 324.105L1305.3 238.979C1328.06 222.839 1355.21 210.343 1386.75 201.492C1418.82 192.641 1451.65 188.215 1485.27 188.215ZM1475.96 538.874C1496.64 538.874 1515 534.188 1531.03 524.816C1547.06 514.924 1558.44 500.606 1565.16 481.862V438.909H1482.16C1432.52 438.909 1407.7 455.309 1407.7 488.11C1407.7 503.73 1413.64 516.225 1425.54 525.597C1437.95 534.448 1454.76 538.874 1475.96 538.874Z" fill="#0A2342"/>
<path d="M1926.78 249.912C1941.26 229.607 1960.66 214.248 1984.96 203.835C2009.78 193.422 2038.23 188.215 2070.29 188.215V300.676C2056.84 299.635 2047.79 299.114 2043.14 299.114C2008.49 299.114 1981.34 309.006 1961.69 328.791C1942.04 348.055 1932.21 377.211 1932.21 416.26V614.628H1811.2V194.463H1926.78V249.912Z" fill="#0A2342"/>
<path d="M2971.07 67.9449L2793.43 614.628H2658.46L2539 244.446L2415.67 614.628H2281.47L2103.06 67.9449H2233.38L2355.94 452.185L2483.93 67.9449H2600.28L2724.39 455.309L2850.83 67.9449H2971.07Z" fill="#0A2342"/>
<path d="M3055.77 194.463H3176.78V614.628H3055.77V194.463ZM3116.28 135.89C3094.04 135.89 3075.94 129.382 3061.98 116.365C3048.02 103.349 3041.04 87.209 3041.04 67.9449C3041.04 48.6809 3048.02 32.5407 3061.98 19.5244C3075.94 6.50814 3094.04 0 3116.28 0C3138.52 0 3156.62 6.24782 3170.58 18.7435C3184.54 31.2391 3191.52 46.8586 3191.52 65.602C3191.52 85.9074 3184.54 102.829 3170.58 116.365C3156.62 129.382 3138.52 135.89 3116.28 135.89Z" fill="#0A2342"/>
<path d="M3445.01 620.876C3410.36 620.876 3376.49 616.711 3343.39 608.38C3310.29 599.529 3283.92 588.596 3264.27 575.579L3304.6 488.11C3323.22 500.085 3345.72 509.977 3372.09 517.787C3398.46 525.076 3424.32 528.721 3449.66 528.721C3500.86 528.721 3526.45 515.965 3526.45 490.453C3526.45 478.478 3519.47 469.887 3505.51 464.681C3491.55 459.474 3470.09 455.049 3441.13 451.404C3407 446.198 3378.81 440.21 3356.58 433.442C3334.34 426.673 3314.95 414.698 3298.4 397.517C3282.37 380.335 3274.35 355.865 3274.35 324.105C3274.35 297.552 3281.85 274.123 3296.85 253.817C3312.36 232.991 3334.6 216.851 3363.56 205.397C3393.03 193.942 3427.68 188.215 3467.5 188.215C3496.98 188.215 3526.2 191.6 3555.15 198.368C3584.63 204.616 3608.94 213.467 3628.07 224.921L3587.73 311.61C3551.02 290.783 3510.94 280.37 3467.5 280.37C3441.64 280.37 3422.25 284.015 3409.32 291.304C3396.4 298.593 3389.93 307.965 3389.93 319.419C3389.93 332.436 3396.91 341.547 3410.87 346.753C3424.84 351.96 3447.07 356.906 3477.58 361.592C3511.72 367.319 3539.64 373.567 3561.36 380.335C3583.08 386.583 3601.96 398.298 3617.99 415.479C3634.02 432.661 3642.03 456.611 3642.03 487.329C3642.03 513.362 3634.28 536.531 3618.76 556.836C3603.25 577.141 3580.49 593.021 3550.5 604.476C3521.02 615.409 3485.86 620.876 3445.01 620.876Z" fill="#0A2342"/>
<path d="M4141 406.108C4141 407.67 4140.22 418.603 4138.67 438.909H3822.96C3828.65 464.941 3842.1 485.507 3863.3 500.606C3884.5 515.705 3910.88 523.254 3942.42 523.254C3964.14 523.254 3983.27 520.13 3999.82 513.882C4016.89 507.114 4032.66 496.701 4047.14 482.643L4111.52 552.931C4072.22 598.228 4014.82 620.876 3939.32 620.876C3892.26 620.876 3850.63 611.765 3814.43 593.542C3778.23 574.799 3750.31 549.026 3730.66 516.225C3711.01 483.424 3701.18 446.198 3701.18 404.546C3701.18 363.414 3710.75 326.448 3729.88 293.647C3749.53 260.325 3776.16 234.553 3809.78 216.33C3843.91 197.587 3881.92 188.215 3923.8 188.215C3964.66 188.215 4001.63 197.066 4034.73 214.768C4067.83 232.471 4093.68 257.982 4112.3 291.304C4131.43 324.105 4141 362.373 4141 406.108ZM3924.58 280.37C3897.17 280.37 3874.16 288.18 3855.54 303.8C3836.93 319.419 3825.55 340.766 3821.41 367.84H4026.97C4022.84 341.287 4011.46 320.2 3992.84 304.581C3974.22 288.441 3951.47 280.37 3924.58 280.37Z" fill="#0A2342"/>
<path fill-rule="evenodd" clip-rule="evenodd" d="M809.529 306.839C814.719 309.912 819.651 313.375 824.285 317.187L900.919 240.553C890.967 232.779 880.166 225.829 868.519 219.703C861.921 216.134 855.154 212.905 848.218 210.015L809.529 306.839ZM820.352 200.479L782.518 295.165C777.908 293.834 773.182 292.779 768.358 292.019V192.112C786.533 193.202 803.865 195.991 820.352 200.479ZM682.642 199.944L722.633 293.808C727.938 292.536 733.384 291.626 738.943 291.105V191.812C719.263 192.575 700.496 195.286 682.642 199.944ZM631.931 219.703C639.294 215.779 646.849 212.266 654.596 209.163L695.105 304.243C689.363 307.299 683.907 310.821 678.785 314.756L602.389 238.36C611.542 231.467 621.39 225.248 631.931 219.703ZM922.742 260.33L844.495 338.576C847.198 342.269 849.689 346.127 851.95 350.132L955.47 306.027C953.731 302.722 951.896 299.459 949.967 296.239C942.095 283.1 933.02 271.13 922.742 260.33ZM580.194 257.764C568.887 269.225 558.983 282.05 550.483 296.239C548.294 299.893 546.227 303.602 544.281 307.366L648.666 349.076C651.422 344.313 654.505 339.762 657.883 335.453L580.194 257.764ZM637.265 376.197L532.72 334.423C526.382 352.88 522.616 372.495 521.422 393.269L633.874 393.269C634.586 387.435 635.727 381.733 637.265 376.197ZM534.401 486.118C527.057 466.334 522.733 445.189 521.429 422.684H633.971C634.822 429.286 636.222 435.716 638.126 441.926L534.401 486.118ZM550.483 519.598C549.154 517.38 547.869 515.141 546.63 512.881L650.239 468.738C653.121 473.43 656.324 477.902 659.818 482.125L581.95 559.993C569.91 547.982 559.421 534.517 550.483 519.598ZM979.031 393.326L866.146 393.326C865.484 387.883 864.449 382.555 863.067 377.369L967.231 332.99C973.877 351.88 977.81 371.992 979.031 393.326ZM866.034 422.741H979.018C977.882 442.275 974.47 460.783 968.782 478.267L863.485 436.192C864.588 431.802 865.443 427.313 866.034 422.741ZM852.762 463.584C850.023 468.599 846.928 473.391 843.511 477.927L921.999 556.415C932.584 545.326 941.906 533.053 949.967 519.598C952.729 514.988 955.298 510.289 957.672 505.504L852.762 463.584ZM900.19 576.205L823.009 499.025C818.96 502.262 814.69 505.236 810.227 507.921L851.565 604.947C857.335 602.502 862.986 599.825 868.519 596.915C879.882 590.768 890.439 583.864 900.19 576.205ZM823.739 614.682L783.327 519.83C780.823 520.567 778.269 521.212 775.665 521.766C773.257 522.305 770.82 522.77 768.358 523.157V623.74C787.782 622.607 806.243 619.588 823.739 614.682ZM738.943 624.031V524.072C733.812 523.591 728.778 522.778 723.862 521.656L685.803 616.905C702.707 620.958 720.42 623.333 738.943 624.031ZM657.566 608.296L696.233 511.527C691.001 508.814 686 505.718 681.266 502.276L604.267 579.276C612.885 585.721 622.107 591.6 631.931 596.915C640.231 601.216 648.776 605.01 657.566 608.296Z" fill="#0A2342"/>
</svg>
